<svg width="356" height="74" viewBox="0 0 356 74" fill="none" xmlns="http://www.w3.org/2000/svg">
<g clip-path="url(#clip0_230_19)">
<path d="M118.661 61.4385H126.097L145.375 13.0803H135.392L122.448 47.0626L109.71 13.0803H99.5894L118.661 61.4385Z" fill="#1E293B"/>
<path d="M163.552 62.1263C172.433 62.1263 178.561 56.2112 178.561 47.4749V28.2139H169.542V47.268C169.542 51.4642 167.338 53.803 163.552 53.803C159.765 53.803 157.561 51.3954 157.561 47.268V28.2139H148.473V47.4749C148.473 56.0736 154.739 62.1263 163.552 62.1263Z" fill="#1E293B"/>
<path d="M200.249 62.1263C205.619 62.1263 210.37 60.201 213.674 56.4176L208.373 51.12C206.377 53.3901 203.485 54.5595 200.18 54.5595C195.567 54.5595 192.331 52.1519 191.23 48.0245L215.534 47.956C215.878 46.4426 216.016 45.2049 216.016 44.0355C216.016 34.4738 209.13 27.4575 199.629 27.4575C189.783 27.4575 182.141 34.955 182.141 44.7919C182.141 54.8352 189.852 62.1263 200.249 62.1263ZM199.629 34.9545C203.829 34.9545 206.445 37.1566 207.34 41.2839H191.23C192.331 37.3629 195.36 35.0233 199.629 34.9545Z" fill="#1E293B"/>
<path d="M230.818 62.1264C240.802 62.1264 247.274 55.4541 247.274 45.2045V13.0803H237.841V45.7553C237.841 50.7081 235.087 53.4592 230.749 53.4592C227.858 53.4592 225.517 52.2218 223.864 49.8142L217.53 55.8668C220.422 59.7878 224.966 62.1264 230.818 62.1264Z" fill="#1E293B"/>
<path d="M269.788 62.1263C279.84 62.1263 287.551 54.5603 287.551 44.7234C287.551 34.9553 279.84 27.4575 269.719 27.4575C259.667 27.4575 251.955 35.0241 251.955 44.7234C251.955 54.5603 259.735 62.1263 269.788 62.1263ZM269.719 53.7345C264.693 53.7345 261.181 50.0199 261.181 44.7919C261.181 39.6327 264.693 35.9178 269.719 35.9178C274.745 35.9178 278.325 39.5639 278.325 44.7919C278.325 50.0199 274.814 53.7345 269.719 53.7345Z" fill="#1E293B"/>
<path d="M291.958 61.4386H300.908V58.4814C303.249 60.7515 306.554 62.1264 310.409 62.1264C319.635 62.1264 326.521 54.6975 326.521 44.8606C326.521 35.0237 319.635 27.5262 310.409 27.5262C306.623 27.5262 303.318 28.8329 300.977 31.0342V11.7046H291.958V61.4386ZM308.895 53.8032C303.869 53.8032 300.426 50.0888 300.426 44.792C300.426 39.564 303.869 35.8494 308.826 35.8494C313.783 35.8494 317.294 39.564 317.294 44.792C317.294 50.0888 313.783 53.8032 308.895 53.8032Z" fill="#1E293B"/>
<path d="M342.494 62.1965C350.549 62.1965 355.575 58.1376 355.575 51.6026C355.575 39.2893 338.914 42.3163 338.914 37.4323C338.914 35.9189 340.36 35.0932 343.045 35.0932C345.936 35.0932 348.553 36.1247 350.549 38.6012L355.989 33.1665C353.097 29.3831 348.484 27.3879 342.976 27.3879C335.058 27.3879 330.17 31.5161 330.17 37.8447C330.17 50.0205 346.9 46.5807 346.9 52.0151C346.9 53.666 345.317 54.4912 342.425 54.4912C338.707 54.4912 335.678 53.1845 333.406 50.6393L328.035 56.0739C331.34 59.9262 336.779 62.1965 342.494 62.1965Z" fill="#1E293B"/>
<path d="M51.987 58.04L51.0791 59.6048L51.0736 59.6102L42.7619 73.9915L0 0.000244141H18.4461L51.9829 58.0345L51.987 58.04Z" fill="#22C55D"/>
<path d="M61.2178 42.0663L36.907 0.000488281H85.5244L61.2178 42.0663Z" fill="#22C55D"/>
<path d="M61.2156 42.0663L51.996 58.0183H51.9901L27.6903 15.9579L27.6738 15.936L36.8811 0.000488281H36.9031L61.2106 42.0641L61.2156 42.0663Z" fill="#235667"/>
</g>
<defs>
<clipPath id="clip0_230_19">
<rect width="356" height="74" fill="white"/>
</clipPath>
</defs>
</svg>
